<svg width="41" height="38" viewBox="0 0 41 38" fill="none" xmlns="http://www.w3.org/2000/svg">
<path fill-rule="evenodd" clip-rule="evenodd" d="M20.5 0C20.9182 0 21.3193 0.166815 21.6151 0.463748C21.9108 0.76068 22.0769 1.16341 22.0769 1.58333V36.4167C22.0769 36.8366 21.9108 37.2393 21.6151 37.5363C21.3193 37.8332 20.9182 38 20.5 38C20.0818 38 19.6807 37.8332 19.3849 37.5363C19.0892 37.2393 18.9231 36.8366 18.9231 36.4167V1.58333C18.9231 1.16341 19.0892 0.76068 19.3849 0.463748C19.6807 0.166815 20.0818 0 20.5 0ZM14.1923 6.33333C14.6105 6.33333 15.0116 6.50015 15.3074 6.79708C15.6031 7.09401 15.7692 7.49674 15.7692 7.91667V30.0833C15.7692 30.5033 15.6031 30.906 15.3074 31.2029C15.0116 31.4999 14.6105 31.6667 14.1923 31.6667C13.7741 31.6667 13.373 31.4999 13.0773 31.2029C12.7815 30.906 12.6154 30.5033 12.6154 30.0833V7.91667C12.6154 7.49674 12.7815 7.09401 13.0773 6.79708C13.373 6.50015 13.7741 6.33333 14.1923 6.33333ZM26.8077 6.33333C27.2259 6.33333 27.627 6.50015 27.9227 6.79708C28.2185 7.09401 28.3846 7.49674 28.3846 7.91667V30.0833C28.3846 30.5033 28.2185 30.906 27.9227 31.2029C27.627 31.4999 27.2259 31.6667 26.8077 31.6667C26.3895 31.6667 25.9884 31.4999 25.6926 31.2029C25.3969 30.906 25.2308 30.5033 25.2308 30.0833V7.91667C25.2308 7.49674 25.3969 7.09401 25.6926 6.79708C25.9884 6.50015 26.3895 6.33333 26.8077 6.33333ZM7.88462 11.0833C8.30284 11.0833 8.70394 11.2501 8.99967 11.5471C9.2954 11.844 9.46154 12.2467 9.46154 12.6667V25.3333C9.46154 25.7533 9.2954 26.156 8.99967 26.4529C8.70394 26.7499 8.30284 26.9167 7.88462 26.9167C7.46639 26.9167 7.06529 26.7499 6.76956 26.4529C6.47383 26.156 6.30769 25.7533 6.30769 25.3333V12.6667C6.30769 12.2467 6.47383 11.844 6.76956 11.5471C7.06529 11.2501 7.46639 11.0833 7.88462 11.0833ZM33.1154 11.0833C33.5336 11.0833 33.9347 11.2501 34.2304 11.5471C34.5262 11.844 34.6923 12.2467 34.6923 12.6667V25.3333C34.6923 25.7533 34.5262 26.156 34.2304 26.4529C33.9347 26.7499 33.5336 26.9167 33.1154 26.9167C32.6972 26.9167 32.2961 26.7499 32.0003 26.4529C31.7046 26.156 31.5385 25.7533 31.5385 25.3333V12.6667C31.5385 12.2467 31.7046 11.844 32.0003 11.5471C32.2961 11.2501 32.6972 11.0833 33.1154 11.0833ZM1.57692 14.25C1.99515 14.25 2.39625 14.4168 2.69198 14.7137C2.98771 15.0107 3.15385 15.4134 3.15385 15.8333V22.1667C3.15385 22.5866 2.98771 22.9893 2.69198 23.2863C2.39625 23.5832 1.99515 23.75 1.57692 23.75C1.1587 23.75 0.757601 23.5832 0.46187 23.2863C0.16614 22.9893 0 22.5866 0 22.1667V15.8333C0 15.4134 0.16614 15.0107 0.46187 14.7137C0.757601 14.4168 1.1587 14.25 1.57692 14.25ZM39.4231 14.25C39.8413 14.25 40.2424 14.4168 40.5381 14.7137C40.8339 15.0107 41 15.4134 41 15.8333V22.1667C41 22.5866 40.8339 22.9893 40.5381 23.2863C40.2424 23.5832 39.8413 23.75 39.4231 23.75C39.0049 23.75 38.6038 23.5832 38.308 23.2863C38.0123 22.9893 37.8462 22.5866 37.8462 22.1667V15.8333C37.8462 15.4134 38.0123 15.0107 38.308 14.7137C38.6038 14.4168 39.0049 14.25 39.4231 14.25Z" fill="black"/>
</svg>
